<svg width="19" height="18" viewBox="0 0 19 18" fill="none" xmlns="http://www.w3.org/2000/svg">
<path d="M18 9C18 13.9706 13.9706 18 9 18C4.02944 18 0 13.9706 0 9C0 4.02944 4.02944 0 9 0C13.9706 0 18 4.02944 18 9Z" fill="white"/>
<path d="M12.8095 5.56272L12.0918 5.07492C11.8933 4.94046 11.6212 4.99206 11.4883 5.18905L7.97057 10.3766L6.35395 8.75999C6.1851 8.59114 5.90993 8.59114 5.74108 8.75999L5.12664 9.37442C4.95779 9.54328 4.95779 9.81845 5.12664 9.98886L7.61254 12.4748C7.75168 12.6139 7.97057 12.7202 8.16756 12.7202C8.36456 12.7202 8.56312 12.5967 8.69132 12.4107L12.9252 6.16465C13.0596 5.96766 13.008 5.69718 12.8095 5.56272Z" fill="#51C777"/>
</svg>
