<svg width="16" height="13" viewBox="0 0 16 13" fill="none" xmlns="http://www.w3.org/2000/svg">
<path d="M13.9069 5.07425C11.3275 5.07425 8.75374 5.07425 6.17433 5.07425C6.8305 4.43506 7.48666 3.79588 8.14283 3.1567C9.6588 1.67996 7.3 -0.601263 5.77837 0.880982C4.17755 2.44037 2.57674 3.99976 0.975919 5.55915C0.331067 6.18731 0.348038 7.22874 0.987233 7.84588C2.58805 9.40527 4.18887 10.9647 5.78968 12.524C7.30565 14.0008 9.64748 11.703 8.12586 10.2208C7.47535 9.5871 6.81919 8.94792 6.16868 8.31425C8.73677 8.31425 11.3049 8.31425 13.873 8.31425C16.0281 8.31425 16.0451 5.07425 13.9069 5.07425Z" fill="white"/>
</svg>
