<svg width="29" height="35" viewBox="0 0 29 35" fill="none" xmlns="http://www.w3.org/2000/svg">
<path d="M14.5 0C12.9761 0 11.7381 1.25508 11.7381 2.8C11.7381 4.34492 12.9761 5.6 14.5 5.6C16.0239 5.6 17.2619 4.34492 17.2619 2.8C17.2619 1.25508 16.0239 0 14.5 0ZM10.6161 4.26562C7.46038 5.63555 5.52381 8.71992 5.52381 12.6C5.52381 20.3 2.89946 22.2332 1.3378 23.3844C0.644624 23.893 0 24.366 0 25.2C0 28.1449 4.33705 29.4 14.5 29.4C24.6629 29.4 29 28.1449 29 25.2C29 24.366 28.3554 23.893 27.6622 23.3844C26.1005 22.2332 23.4762 20.3 23.4762 12.6C23.4762 8.70898 21.5423 5.63281 18.3839 4.26562C17.7932 5.85703 16.272 7 14.5 7C12.728 7 11.2068 5.8543 10.6161 4.26562ZM10.3571 30.7125C10.3571 30.7398 10.3571 30.7727 10.3571 30.8C10.3571 33.116 12.2155 35 14.5 35C16.7845 35 18.6429 33.116 18.6429 30.8C18.6429 30.7727 18.6429 30.7398 18.6429 30.7125C17.3428 30.7672 15.9619 30.8 14.5 30.8C13.0381 30.8 11.6572 30.7672 10.3571 30.7125Z" fill="white"/>
</svg>
