<svg width="55" height="48" viewBox="0 0 55 48" fill="none" xmlns="http://www.w3.org/2000/svg">
<path d="M39.4565 0C37.1633 0 34.9868 0.495873 32.9552 1.41745L31.087 9.58064H35.5099L31.2084 20.3589H34.3143L24.5109 36.166L27.5 22.754H23.5534L27.2618 11.9758H22.241L24.0391 2.55422C21.5871 0.88883 18.6681 0 15.5435 0C6.97308 0 0 6.98433 0 15.5685C0 29.4624 12.1574 37.6115 21.036 43.5667C23.3152 45.0917 25.2815 46.4109 26.734 47.6272C26.9582 47.8097 27.2291 47.9032 27.5 47.9032C27.7709 47.9032 28.0418 47.8097 28.266 47.6272C29.7232 46.4109 31.6848 45.0964 33.964 43.5667C42.8426 37.6115 55 29.4624 55 15.5685C55 6.98433 48.0269 0 39.4565 0Z" fill="white"/>
</svg>
