<svg width="31" height="25" viewBox="0 0 31 25" fill="none" xmlns="http://www.w3.org/2000/svg">
<path d="M12.5 0C11.6536 0 11.0956 0.344123 10.8259 0.818452L9.3006 3.57143H7.14286C7.14286 2.91574 6.60807 2.38095 5.95238 2.38095H3.57143C2.91574 2.38095 2.38095 2.91574 2.38095 3.57143V3.79464C0.995164 4.28757 0 5.58966 0 7.14286V19.1964C0 22.4005 2.59952 25 5.80357 25H25.1488C28.3529 25 30.9524 22.4005 30.9524 19.1964V9.375C30.9524 6.17095 28.3529 3.57143 25.1488 3.57143H24.0327L22.5074 0.818452C22.2377 0.344123 21.6425 0 20.8333 0H12.5ZM4.7619 4.16667C5.74777 4.16667 6.54762 4.96652 6.54762 5.95238C6.54762 6.93824 5.74777 7.7381 4.7619 7.7381C3.77604 7.7381 2.97619 6.93824 2.97619 5.95238C2.97619 4.96652 3.77604 4.16667 4.7619 4.16667ZM16.6667 4.6875C21.3077 4.6875 25.0744 8.45424 25.0744 13.0952C25.0744 17.7362 21.3077 21.503 16.6667 21.503C12.0257 21.503 8.25893 17.7409 8.25893 13.0952C8.25893 8.44959 12.0257 4.6875 16.6667 4.6875ZM16.6667 7.36607C13.5045 7.36607 10.9375 9.93304 10.9375 13.0952C10.9375 16.2574 13.5045 18.8244 16.6667 18.8244C19.8289 18.8244 22.3958 16.2574 22.3958 13.0952C22.3958 9.93304 19.8289 7.36607 16.6667 7.36607Z" fill="#D3CFF7"/>
</svg>
