<svg width="12" height="12" viewBox="0 0 12 12" fill="none" xmlns="http://www.w3.org/2000/svg">
<path d="M1.76306 0C1.5702 0 1.39559 0.0755781 1.26268 0.208492L0.19937 1.2718C-0.0664566 1.53763 -0.0664566 2.00152 0.19937 2.33511L3.86882 6.00456L0.19937 9.67401C-0.0664566 10.0076 -0.0664566 10.4715 0.19937 10.7373L1.26268 11.8006C1.59626 12.0665 2.06016 12.0665 2.32599 11.8006L5.99544 8.13118L9.66489 11.8006C9.99848 12.0665 10.4624 12.0665 10.7282 11.8006L11.7915 10.7373C12.0573 10.4037 12.0573 9.93984 11.7915 9.67401L8.12205 6.00456L11.7915 2.33511C12.0573 2.00152 12.0573 1.53763 11.7915 1.2718L10.7282 0.208492C10.3946 -0.0573349 9.93072 -0.0573349 9.66489 0.208492L5.99544 3.87795L2.32599 0.208492C2.15919 0.0755781 1.95591 0 1.76306 0Z" fill="black" fill-opacity="0.25"/>
</svg>
