<svg width="16" height="16" viewBox="0 0 16 16" fill="none" xmlns="http://www.w3.org/2000/svg">
<path d="M12.6429 0C12.3323 0 12.0216 0.118629 11.7846 0.355659L10.9263 1.21398L13.9612 4.24894L14.8195 3.39061C15.2936 2.91655 15.2936 2.14803 14.8195 1.67397L13.5012 0.355659C13.2642 0.118629 12.9535 0 12.6429 0ZM9.71227 2.42796L1.30687 12.2323L1.69948 14.3005L3.94586 14.8713L12.7472 5.46292L9.71227 2.42796ZM1.30687 12.2323L0.629874 14.9729C0.614814 15.0098 0.607161 15.0493 0.607349 15.0891C0.607349 15.1696 0.639324 15.2468 0.696241 15.3037C0.753157 15.3606 0.830352 15.3926 0.910844 15.3926C0.948528 15.3928 0.985917 15.386 1.0211 15.3725L3.94586 14.8713L1.30687 12.2323Z" fill="#A56FF3"/>
</svg>
