<svg width="21" height="15" viewBox="0 0 21 15" fill="none" xmlns="http://www.w3.org/2000/svg">
<path d="M0.5 0V1.16484C3.1832 3.48364 8.71282 8.26263 9.16563 8.65703C9.72963 9.14783 10.2864 9.20078 10.5 9.20078C10.7136 9.20078 11.2708 9.14821 11.8344 8.65781C12.2704 8.27821 17.6136 3.61337 20.5 1.09297V0H0.5ZM20.5 2.15312C17.5352 4.74153 12.7694 8.90217 12.3586 9.25938C11.5918 9.92698 10.8032 9.99922 10.5 9.99922C10.1968 9.99922 9.40821 9.92699 8.64141 9.25859C8.21621 8.88899 3.3176 4.65551 0.5 2.22031V14.4H20.5V2.15312Z" fill="#B3B6BB"/>
</svg>
