<svg width="16" height="16" viewBox="0 0 16 16" fill="none" xmlns="http://www.w3.org/2000/svg">
<path d="M1.38935 2.80113C0.630029 2.80113 0 3.43116 0 4.19049V14.6106C0 15.37 0.630029 16 1.38935 16H11.8095C12.5688 16 13.1989 15.37 13.1989 14.6106V5.87291L11.8095 7.26226L10.6172 8.56207V12.9897H2.43134V5.53591L6.94677 5.38276H7.43793L8.73774 4.19049L10.1271 2.80113H1.38935Z" fill="white"/>
<path d="M15.1172 0.000343958C15.0864 0.00131616 15.0557 0.00400769 15.0253 0.00840589H10.18C10.0706 0.00685878 9.96204 0.0270691 9.86052 0.0678622C9.75901 0.108655 9.66661 0.169218 9.5887 0.24603C9.5108 0.322842 9.44893 0.414372 9.40671 0.5153C9.36449 0.616229 9.34274 0.724542 9.34274 0.833947C9.34274 0.943352 9.36449 1.05167 9.40671 1.15259C9.44893 1.25352 9.5108 1.34505 9.5887 1.42187C9.66661 1.49868 9.75901 1.55924 9.86052 1.60003C9.96204 1.64083 10.0706 1.66104 10.18 1.65949H13.1404L5.3053 9.49462C5.22607 9.57069 5.16282 9.6618 5.11924 9.76263C5.07566 9.86345 5.05264 9.97195 5.05152 10.0818C5.05041 10.1916 5.07121 10.3006 5.11273 10.4023C5.15425 10.5039 5.21563 10.5963 5.2933 10.674C5.37097 10.7517 5.46335 10.813 5.56504 10.8546C5.66673 10.8961 5.77568 10.9169 5.88551 10.9158C5.99534 10.9147 6.10384 10.8916 6.20467 10.8481C6.30549 10.8045 6.3966 10.7412 6.47267 10.662L14.3077 2.82686V5.7872C14.3062 5.89659 14.3264 6.0052 14.3672 6.10672C14.408 6.20823 14.4686 6.30063 14.5454 6.37853C14.6222 6.45644 14.7137 6.5183 14.8146 6.56053C14.9156 6.60275 15.0239 6.6245 15.1333 6.6245C15.2427 6.6245 15.351 6.60275 15.4519 6.56053C15.5529 6.5183 15.6444 6.45644 15.7212 6.37853C15.798 6.30063 15.8586 6.20823 15.8994 6.10672C15.9402 6.0052 15.9604 5.89659 15.9588 5.7872V0.938753C15.9753 0.819895 15.9656 0.698883 15.9305 0.584141C15.8954 0.469399 15.8357 0.363686 15.7556 0.274362C15.6755 0.185038 15.5769 0.114249 15.4666 0.0669257C15.3564 0.0196022 15.2371 -0.00311904 15.1172 0.000343958Z" fill="white"/>
</svg>
