<svg width="26" height="19" viewBox="0 0 26 19" fill="none" xmlns="http://www.w3.org/2000/svg">
<path d="M1.28571 0.5C0.575634 0.5 0 1.07563 0 1.78571V1.78571C0 2.49579 0.575634 3.07143 1.28571 3.07143H24.4286C25.1387 3.07143 25.7143 2.49579 25.7143 1.78571V1.78571C25.7143 1.07563 25.1387 0.5 24.4286 0.5H1.28571ZM1.28571 8.21429C0.575633 8.21429 0 8.78992 0 9.5V9.5C0 10.2101 0.575634 10.7857 1.28571 10.7857H24.4286C25.1387 10.7857 25.7143 10.2101 25.7143 9.5V9.5C25.7143 8.78992 25.1387 8.21429 24.4286 8.21429H1.28571ZM1.28571 15.9286C0.575633 15.9286 0 16.5042 0 17.2143V17.2143C0 17.9244 0.575633 18.5 1.28571 18.5H24.4286C25.1387 18.5 25.7143 17.9244 25.7143 17.2143V17.2143C25.7143 16.5042 25.1387 15.9286 24.4286 15.9286H1.28571Z" fill="white"/>
</svg>
