<svg width="48" height="46" viewBox="0 0 48 46" fill="none" xmlns="http://www.w3.org/2000/svg">
<path d="M24.0004 0C23.7829 0 23.5663 0.0689844 23.3813 0.208984L0.381274 18.1602C-0.0487259 18.5002 -0.128648 19.1284 0.211352 19.5684C0.551352 19.9984 1.17956 20.0783 1.61956 19.7383L3.00041 18.6602V44.9492C3.00041 45.4992 3.45041 45.9492 4.00041 45.9492H18.0004V27.9492H30.0004V45.9492H44.0004C44.5504 45.9492 45.0004 45.4992 45.0004 44.9492V18.6602L46.3813 19.7383C46.5713 19.8783 46.7804 19.9492 47.0004 19.9492C47.3004 19.9492 47.5895 19.8184 47.7895 19.5684C48.1295 19.1284 48.0496 18.5002 47.6196 18.1602L24.6196 0.208984C24.4346 0.0689844 24.2179 0 24.0004 0ZM34.0004 3.94922V5L40.0004 9.67969V3.94922H34.0004Z" fill="white"/>
</svg>
