<svg width="18" height="18" viewBox="0 0 18 18" fill="none" xmlns="http://www.w3.org/2000/svg">
<path d="M18 9C18 13.9706 13.9706 18 9 18C4.02944 18 0 13.9706 0 9C0 4.02944 4.02944 0 9 0C13.9706 0 18 4.02944 18 9Z" fill="#E3245D"/>
<path d="M7.7512 11.896C7.7512 12.58 8.3032 13.132 8.9992 13.132C9.6952 13.132 10.2472 12.58 10.2472 11.896C10.2472 11.212 9.6952 10.66 8.9992 10.66C8.3032 10.66 7.7512 11.212 7.7512 11.896ZM8.1712 9.952H9.8272L10.3912 4.312H7.6072L8.1712 9.952Z" fill="white"/>
</svg>
