<svg width="41" height="40" viewBox="0 0 41 40" fill="none" xmlns="http://www.w3.org/2000/svg">
<ellipse cx="20.4425" cy="19.9444" rx="19.9425" ry="19.9444" fill="#F36ECE"/>
<path d="M13.5769 11C11.8777 11 10.5 12.3777 10.5 14.0769V23.3077C10.5 25.0069 11.8777 26.3846 13.5769 26.3846H15.521C15.3739 27.2878 14.9465 28.2007 13.8278 28.7163C13.7542 28.7436 13.6907 28.7928 13.6458 28.8573C13.601 28.9218 13.5769 28.9984 13.5769 29.0769C13.5769 29.1789 13.6174 29.2768 13.6896 29.3489C13.7617 29.421 13.8595 29.4615 13.9615 29.4615C13.9997 29.4617 14.0377 29.4561 14.0742 29.445C15.9884 29.4028 18.0513 28.2893 19.1689 26.3846H27.4231C29.1223 26.3846 30.5 25.0069 30.5 23.3077V14.0769C30.5 12.3777 29.1223 11 27.4231 11H13.5769ZM15.8846 17.1538C16.7346 17.1538 17.4231 17.8423 17.4231 18.6923C17.4231 19.5423 16.7346 20.2308 15.8846 20.2308C15.0346 20.2308 14.3462 19.5423 14.3462 18.6923C14.3462 17.8423 15.0346 17.1538 15.8846 17.1538ZM20.5 17.1538C21.35 17.1538 22.0385 17.8423 22.0385 18.6923C22.0385 19.5423 21.35 20.2308 20.5 20.2308C19.65 20.2308 18.9615 19.5423 18.9615 18.6923C18.9615 17.8423 19.65 17.1538 20.5 17.1538ZM25.1154 17.1538C25.9654 17.1538 26.6538 17.8423 26.6538 18.6923C26.6538 19.5423 25.9654 20.2308 25.1154 20.2308C24.2654 20.2308 23.5769 19.5423 23.5769 18.6923C23.5769 17.8423 24.2654 17.1538 25.1154 17.1538Z" fill="white"/>
</svg>
