<svg width="51" height="55" viewBox="0 0 51 55" fill="none" xmlns="http://www.w3.org/2000/svg">
<path d="M14.4361 0.805408C13.4058 0.724922 12.2307 1.20784 10.8947 2.5439C1.00296 12.2264 14.1624 13.2324 16.4321 13.2324H21.0037C21.0037 13.2324 10.0335 12.3954 13.5346 8.2745C14.9753 6.62454 16.255 6.19797 18.1062 7.43745C19.1284 8.11353 20.2713 8.72522 21.39 9.24033V11.172C21.39 12.4115 22.211 13.2324 23.4505 13.2324H27.5714C28.8108 13.2324 29.6318 12.4115 29.6318 11.172V9.24033C30.7506 8.72522 31.8934 8.11353 32.9156 7.43745C34.7668 6.19797 36.0465 6.62454 37.4872 8.2745C40.9884 12.3954 30.0181 13.2324 30.0181 13.2324H34.5897C36.8594 13.2324 50.0189 12.2264 40.1272 2.5439C37.447 -0.136277 35.3865 0.636388 33.9458 2.28635C32.2476 4.41118 30.5493 6.19797 29.0523 7.63061C28.6901 7.26843 28.1911 7.05112 27.5714 7.05112H23.4505C22.8307 7.05112 22.3317 7.26843 21.9695 7.63061C20.4725 6.19797 18.7742 4.41118 17.076 2.28635C16.3516 1.46539 15.4663 0.885894 14.4361 0.805408ZM2.84608 15.2929C1.81586 15.2929 0.785645 16.1138 0.785645 17.3533V23.5346H50.2362V17.3533C50.2362 16.1138 49.206 15.2929 48.1757 15.2929H2.84608ZM2.84608 25.5951V52.3808C2.84608 53.6203 3.8763 54.4412 4.90652 54.4412H46.1153C47.1455 54.4412 48.1757 53.6203 48.1757 52.3808V25.5951H2.84608ZM21.7764 31.7764C23.4263 31.7764 24.69 32.8227 25.5109 33.6437C26.3319 32.8227 27.5955 31.7764 29.2455 31.7764C31.9256 31.7764 33.7527 33.6034 33.7527 36.2836C33.7527 39.3743 25.5109 46.1995 25.5109 46.1995C25.3017 46.1995 17.2692 39.3743 17.2692 36.2836C17.2692 33.6034 19.0962 31.7764 21.7764 31.7764Z" fill="white"/>
</svg>
