<svg width="41" height="41" viewBox="0 0 41 41" fill="none" xmlns="http://www.w3.org/2000/svg">
<ellipse cx="20.4425" cy="20.1113" rx="19.9425" ry="20" fill="#F36ECE"/>
<path d="M25.144 11C24.156 10.9999 23.1677 11.3765 22.4154 12.1286L20.2721 14.272C19.2038 15.3402 18.8985 16.8828 19.3477 18.2271L20.8874 16.6874C20.9517 16.2472 21.1462 15.8225 21.4844 15.4843L23.6278 13.3409C24.0457 12.9234 24.5953 12.7138 25.144 12.7138C25.6927 12.7138 26.2419 12.923 26.6594 13.3409C27.4949 14.1769 27.4949 15.5363 26.6594 16.3718L24.5161 18.5151C24.1779 18.8534 23.7536 19.0474 23.313 19.1121L21.7724 20.6526C22.1702 20.7855 22.5844 20.8561 22.9998 20.8561C23.9879 20.8561 24.9761 20.4798 25.7284 19.7275L27.8718 17.5841C29.3764 16.0799 29.376 13.6328 27.8718 12.1286C27.1195 11.3767 26.132 11.0001 25.144 11ZM22.5552 16.5627C22.3325 16.5693 22.1211 16.6624 21.9658 16.8222L16.8218 21.9663C16.7395 22.0453 16.6738 22.1399 16.6285 22.2446C16.5833 22.3493 16.5594 22.462 16.5582 22.5761C16.5571 22.6901 16.5787 22.8033 16.6218 22.9089C16.6649 23.0145 16.7286 23.1104 16.8093 23.1911C16.89 23.2717 16.9859 23.3355 17.0915 23.3786C17.1971 23.4217 17.3103 23.4433 17.4243 23.4422C17.5384 23.441 17.6511 23.4171 17.7558 23.3718C17.8605 23.3266 17.9551 23.2609 18.0341 23.1786L23.1782 18.0346C23.302 17.9141 23.3867 17.7591 23.4209 17.5898C23.4552 17.4204 23.4375 17.2447 23.3701 17.0856C23.3028 16.9264 23.189 16.7914 23.0436 16.6981C22.8982 16.6048 22.7279 16.5576 22.5552 16.5627ZM17.1918 19.1531C16.1407 19.0996 15.073 19.4713 14.2715 20.2725L12.1282 22.4159C10.6239 23.9201 10.6239 26.368 12.1282 27.8722C12.8805 28.6241 13.8683 29 14.8559 29C15.8436 29 16.8313 28.6237 17.5837 27.8714L19.727 25.728C20.7953 24.6598 21.1014 23.1172 20.6522 21.7729L19.1116 23.3134C19.0473 23.7537 18.8529 24.1783 18.5147 24.5165L16.3713 26.6599C15.5358 27.4958 14.176 27.4958 13.3405 26.6599C12.505 25.824 12.505 24.4645 13.3405 23.6291L15.4838 21.4857C15.8221 21.1475 16.2467 20.9526 16.687 20.8879L18.2267 19.3482C17.8906 19.2359 17.5422 19.171 17.1918 19.1531Z" fill="white"/>
</svg>
