<svg width="41" height="40" viewBox="0 0 41 40" fill="none" xmlns="http://www.w3.org/2000/svg">
<ellipse cx="20.4425" cy="19.9444" rx="19.9425" ry="19.9444" fill="#F36ECE"/>
<path d="M10.5 13V14.1125C11.7047 15.1609 18.6156 21.1859 19.1625 21.6625C19.725 22.1531 20.2859 22.2 20.5 22.2C20.7141 22.2 21.275 22.1531 21.8375 21.6625C22.4047 21.1687 29.7188 14.7922 30.5 14.1125V13H10.5ZM10.5 15.175V25.2125L16.55 20.4375C14.5891 18.7312 11.7922 16.3 10.5 15.175ZM30.5 15.175C29.2797 16.2375 26.4391 18.7062 24.45 20.4375L30.5 25.2V15.175ZM17.1625 20.975L10.5 26.225V27.4H30.5V26.2125L23.8375 20.975C23.0625 21.65 22.5047 22.1391 22.3625 22.2625C21.5953 22.9297 20.8031 23 20.5 23C20.1969 23 19.4047 22.9312 18.6375 22.2625C18.4969 22.1406 17.9391 21.6516 17.1625 20.975Z" fill="white"/>
</svg>
