<svg width="19" height="19" viewBox="0 0 19 19" fill="none" xmlns="http://www.w3.org/2000/svg">
<path d="M18 9.5C18 14.4706 13.9706 18.5 9 18.5C4.02944 18.5 0 14.4706 0 9.5C0 4.52944 4.02944 0.5 9 0.5C13.9706 0.5 18 4.52944 18 9.5Z" fill="white"/>
<path d="M12.8095 6.06272L12.0918 5.57492C11.8933 5.44046 11.6212 5.49206 11.4883 5.68905L7.97057 10.8766L6.35395 9.25999C6.1851 9.09114 5.90993 9.09114 5.74108 9.25999L5.12664 9.87442C4.95779 10.0433 4.95779 10.3184 5.12664 10.4889L7.61254 12.9748C7.75168 13.1139 7.97057 13.2202 8.16756 13.2202C8.36456 13.2202 8.56312 13.0967 8.69132 12.9107L12.9252 6.66465C13.0596 6.46766 13.008 6.19718 12.8095 6.06272Z" fill="#51C777"/>
</svg>
