<svg width="102" height="102" viewBox="0 0 102 102" fill="none" xmlns="http://www.w3.org/2000/svg">
<g clip-path="url(#clip0)">
<path d="M73.1062 39.6324C77.6734 35.1754 77.2716 29.3871 77.2716 29.3871C77.2716 29.3871 77.5562 22.3624 67.9495 19.7883C44.4299 13.4862 19.29 68.8831 19.29 68.8831C19.29 68.8831 21.2712 74.7397 42.8033 80.5092C64.3353 86.2787 68.9794 82.1974 68.9794 82.1974C70.5194 59.887 65.2153 33.9676 65.2153 33.9676C65.2153 33.9676 63.7429 27.5373 68.5462 28.8243C71.8589 29.7119 70.1367 38.1267 70.1367 38.1267" fill="#673AB7"/>
<path d="M73.4494 39.0141C73.1831 40.0079 72.3431 40.4929 71.3493 40.2267C70.3555 39.9604 69.8705 39.1203 70.1368 38.1265C70.403 37.1327 71.2431 36.6477 72.2369 36.914C73.2307 37.1803 73.7157 38.0204 73.4494 39.0141Z" fill="#673AB7"/>
<path d="M41.916 83.8216C22.0402 78.4959 17.0863 73.7956 16.2701 72.8668C15.0457 71.4736 15.1257 69.1872 16.5189 67.9628C17.9122 66.7384 20.0329 66.7741 21.2573 68.1673C21.5442 68.4217 26.1343 72.492 43.6912 77.1964C61.5794 81.9895 67.4685 80.5496 67.6341 80.594C69.3911 79.9996 71.2455 81.0291 71.8399 82.786C72.4342 84.543 71.3604 86.5631 69.6034 87.1574C68.4321 87.5537 61.7918 89.1473 41.916 83.8216Z" fill="#CE93D8"/>
<path d="M48.5984 37.6805L49.3671 41.4369L52.8778 42.9102L49.562 44.6846L49.2482 48.506L46.545 46.0065L42.9542 46.8195L44.5931 43.3532L42.6087 40.1586L46.3857 40.6381L48.5984 37.6805ZM38.6414 50.9896L39.4101 54.7461L42.9208 56.2193L39.605 57.9937L39.2912 61.8151L36.588 59.3156L32.9972 60.1287L34.6361 56.6623L32.3204 53.379L36.0975 53.8584L38.6414 50.9896ZM55.0357 58.0453C56.1896 53.7389 60.2242 51.2695 64.4982 51.8821C63.5163 50.9089 62.28 50.2226 60.7893 49.8232C55.8203 48.4918 50.57 51.523 49.2386 56.492C47.9072 61.4609 50.9385 66.7112 55.9074 68.0427C57.3981 68.4421 58.8119 68.4659 60.1488 68.114C56.1412 66.5076 53.8818 62.3517 55.0357 58.0453Z" fill="#FDD835"/>
<path d="M73.4494 39.0141C73.1831 40.0079 72.3431 40.4929 71.3493 40.2267C70.3555 39.9604 69.8705 39.1203 70.1368 38.1265C70.403 37.1327 71.2431 36.6477 72.2369 36.914C73.2307 37.1803 73.7157 38.0204 73.4494 39.0141Z" fill="#673AB7"/>
<path d="M65.2155 33.9668C65.2155 33.9668 63.7431 27.5364 68.5464 28.8235C71.859 29.7111 70.1369 38.1258 70.1369 38.1258C69.8706 39.1196 70.3556 39.9597 71.3494 40.2259C72.0119 40.4035 72.5976 40.2053 73.1064 39.6316C75.0084 37.8334 75.8722 35.9346 76.526 34.157C77.4255 30.1375 74.3499 25.0528 70.3747 23.9877C66.2339 22.8782 64.74 25.1407 64.0743 27.6252C63.1867 30.9378 65.0586 35.8775 65.8954 38.0545C65.523 35.4693 65.2155 33.9668 65.2155 33.9668Z" fill="#311B92"/>
</g>
<defs>
<clipPath id="clip0">
<path d="M21.6919 0.291992L101.195 21.5948L79.8922 101.098L0.389096 79.7951L21.6919 0.291992Z" fill="white"/>
</clipPath>
</defs>
</svg>
