<svg width="75" height="75" viewBox="0 0 75 75" fill="none" xmlns="http://www.w3.org/2000/svg">
<circle cx="37.5" cy="37.5" r="37.5" fill="#A376DF" fill-opacity="0.25"/>
<g clip-path="url(#clip0)">
<path d="M53.3458 29.8825C56.5471 26.7585 56.2655 22.7012 56.2655 22.7012C56.2655 22.7012 56.465 17.7773 49.7313 15.9731C33.2456 11.5557 15.6241 50.3854 15.6241 50.3854C15.6241 50.3854 17.0128 54.4904 32.1054 58.5345C47.198 62.5785 50.4532 59.7178 50.4532 59.7178C51.5326 44.0797 47.8148 25.9119 47.8148 25.9119C47.8148 25.9119 46.7828 21.4046 50.1496 22.3068C52.4715 22.9289 51.2644 28.8271 51.2644 28.8271" fill="#673AB7"/>
<path d="M53.5863 29.4491C53.3996 30.1457 52.8108 30.4857 52.1142 30.299C51.4177 30.1124 51.0777 29.5236 51.2644 28.827C51.451 28.1304 52.0398 27.7904 52.7364 27.9771C53.433 28.1637 53.7729 28.7526 53.5863 29.4491Z" fill="#673AB7"/>
<path d="M31.4833 60.8561C17.5517 57.1231 14.0794 53.8285 13.5072 53.1774C12.649 52.2009 12.7051 50.5983 13.6817 49.7401C14.6582 48.8819 16.1447 48.9069 17.0029 49.8834C17.204 50.0617 20.4214 52.9147 32.7277 56.2122C45.2661 59.5719 49.394 58.5626 49.5101 58.5937C50.7416 58.1771 52.0414 58.8986 52.458 60.1302C52.8746 61.3617 52.1219 62.7776 50.8904 63.1942C50.0694 63.472 45.415 64.589 31.4833 60.8561Z" fill="#CE93D8"/>
<path d="M36.1675 28.5143L36.7063 31.1473L39.1672 32.18L36.843 33.4237L36.623 36.1022L34.7282 34.3502L32.2113 34.9201L33.3601 32.4904L31.9691 30.2513L34.6166 30.5873L36.1675 28.5143ZM29.1883 37.8431L29.7271 40.4761L32.1879 41.5088L29.8638 42.7525L29.6438 45.4311L27.749 43.6791L25.2321 44.249L26.3809 41.8193L24.7577 39.5179L27.4052 39.854L29.1883 37.8431ZM40.6797 42.7887C41.4885 39.7702 44.3165 38.0393 47.3122 38.4687C46.624 37.7865 45.7574 37.3055 44.7126 37.0255C41.2297 36.0923 37.5495 38.217 36.6163 41.6999C35.683 45.1828 37.8078 48.8629 41.2907 49.7962C42.3355 50.0761 43.3265 50.0928 44.2636 49.8462C41.4545 48.7202 39.8709 45.8072 40.6797 42.7887Z" fill="#FDD835"/>
<path d="M53.5863 29.4491C53.3996 30.1457 52.8108 30.4857 52.1142 30.299C51.4177 30.1124 51.0777 29.5236 51.2644 28.827C51.451 28.1304 52.0398 27.7904 52.7364 27.9771C53.433 28.1637 53.7729 28.7526 53.5863 29.4491Z" fill="#673AB7"/>
<path d="M47.8149 25.9118C47.8149 25.9118 46.7828 21.4046 50.1496 22.3067C52.4716 22.9289 51.2644 28.827 51.2644 28.827C51.0778 29.5236 51.4177 30.1124 52.1143 30.2991C52.5787 30.4235 52.9892 30.2847 53.3459 29.8825C54.679 28.6221 55.2845 27.2911 55.7428 26.0452C56.3733 23.2277 54.2175 19.6637 51.4311 18.9171C48.5287 18.1394 47.4816 19.7253 47.015 21.4668C46.3928 23.7887 47.7049 27.2511 48.2915 28.777C48.0304 26.965 47.8149 25.9118 47.8149 25.9118Z" fill="#311B92"/>
</g>
<defs>
<clipPath id="clip0">
<path d="M17.3076 2.30762L73.0341 17.2395L58.1022 72.966L2.37575 58.0341L17.3076 2.30762Z" fill="white"/>
</clipPath>
</defs>
</svg>
