<svg width="20" height="20" viewBox="0 0 20 20" fill="none" xmlns="http://www.w3.org/2000/svg">
<path d="M7.0001 0C3.37267 0 0.411865 3.14585 0.411865 7C0.411865 10.8541 3.37267 14 7.0001 14C8.64528 14 10.1483 13.348 11.3052 12.2812H10.0883L17.353 20L19.2354 18L11.9707 10.2812V11.5742C12.9747 10.345 13.5883 8.748 13.5883 7C13.5883 3.14585 10.6275 0 7.0001 0ZM7.0001 2C9.61024 2 11.706 4.22673 11.706 7C11.706 9.77327 9.61024 12 7.0001 12C4.38997 12 2.29422 9.77327 2.29422 7C2.29422 4.22673 4.38997 2 7.0001 2Z" fill="#B3B6BB"/>
</svg>
