<svg width="75" height="75" viewBox="0 0 75 75" fill="none" xmlns="http://www.w3.org/2000/svg">
<circle cx="37.5" cy="37.5" r="37.5" fill="#F36ECE" fill-opacity="0.25"/>
<path d="M50.0586 43.0207H25.9414V25.2501C25.9414 18.7173 31.3505 13.4031 38 13.4031C44.6495 13.4031 50.0586 18.7173 50.0586 25.2501V43.0207ZM28.5254 40.482H47.4746V25.2501C47.4746 20.1178 43.224 15.9417 38 15.9417C32.776 15.9417 28.5254 20.1178 28.5254 25.2501V40.482Z" fill="url(#paint0_linear)"/>
<path d="M46.8596 27.7192C43.4746 27.7192 40.4298 29.1257 38.2774 31.3681C38.2016 31.4477 38.1008 31.4874 38.0009 31.4874C37.901 31.4874 37.8002 31.4477 37.7244 31.3681C35.5711 29.1265 32.5263 27.7201 29.1421 27.7201C28.7424 27.7201 28.3393 27.7395 27.9311 27.7793C22.4367 28.3184 17.9655 32.6925 17.3953 38.0888C17.3497 38.5017 17.3281 38.9113 17.3281 39.3158C17.3255 42.7464 18.8467 45.8198 21.2532 47.9464L21.2437 47.9565L36.509 61.1C36.9208 61.5045 37.4608 61.7076 38 61.7076C38.5401 61.7076 39.0793 61.5053 39.491 61.1L54.8062 47.9117L54.7968 47.9024C57.1732 45.7784 58.6736 42.7244 58.6719 39.3192C58.6719 39.1516 58.6684 38.9832 58.6607 38.814C58.41 33.1249 53.8329 28.3437 48.0655 27.7793C47.6598 27.7387 47.2567 27.7192 46.8596 27.7192Z" fill="url(#paint1_linear)"/>
<path d="M58.6607 38.8131C58.41 33.124 53.833 28.3429 48.0655 27.7785C47.6598 27.7387 47.2567 27.7192 46.8596 27.7192C44.9225 27.7192 43.1051 28.1923 41.4944 29.0063C41.1938 30.6082 42.4496 32.0197 44.0293 32.0197H47.9053C49.0948 32.0197 50.0586 32.9666 50.0586 34.1353C50.0586 35.3039 49.0948 36.2508 47.9053 36.2508H47.5875C46.3377 36.2508 45.1852 37.0733 44.9423 38.2775C44.6159 39.8955 45.8829 41.3281 47.4746 41.3281H50.4893C51.6788 41.3281 52.6426 42.275 52.6426 43.4436C52.6426 44.6123 51.6788 45.5592 50.4893 45.5592H50.1714C48.9217 45.5592 47.7692 46.3817 47.5263 47.5859C47.1999 49.2038 48.4669 50.6365 50.0586 50.6365H51.6417L54.8071 47.9108L54.7976 47.9015C57.174 45.7775 58.6745 42.7235 58.6728 39.3183C58.6719 39.1508 58.6684 38.9824 58.6607 38.8131Z" fill="url(#paint2_linear)"/>
<path d="M28.4126 37.0969H17.621C17.5951 37.0969 17.5702 37.1012 17.5443 37.102C17.4797 37.4269 17.4298 37.7553 17.3945 38.0887C17.3497 38.5016 17.3281 38.9112 17.3281 39.3157C17.3255 42.7463 18.8466 45.8197 21.2532 47.9463L21.2437 47.9556L23.3738 49.7902H27.1576C28.1387 49.7902 29.0542 49.1801 29.3083 48.2492C29.6925 46.842 28.6081 45.5591 27.2334 45.5591H25.9414C24.9896 45.5591 24.2188 44.8017 24.2188 43.8667C24.2188 42.9316 24.9896 42.1742 25.9414 42.1742H28.5254C30.1171 42.1742 31.3841 40.7416 31.0577 39.1236C30.8139 37.9194 29.6623 37.0969 28.4126 37.0969Z" fill="url(#paint3_linear)"/>
<path d="M28.5254 31.1736C28.0685 31.1736 27.6303 31.3519 27.3073 31.6693C26.9842 31.9867 26.8027 32.4172 26.8027 32.866C26.8027 33.3149 26.9842 33.7454 27.3073 34.0627C27.6303 34.3801 28.0685 34.5585 28.5254 34.5585C28.9823 34.5585 29.4204 34.3801 29.7435 34.0627C30.0666 33.7454 30.248 33.3149 30.248 32.866C30.248 32.4172 30.0666 31.9867 29.7435 31.6693C29.4204 31.3519 28.9823 31.1736 28.5254 31.1736Z" fill="url(#paint4_linear)"/>
<path d="M38 37.9431C36.0973 37.9431 34.5547 39.4587 34.5547 41.328C34.5547 42.3849 35.0577 43.3166 35.8295 43.9369L34.609 48.7392C34.5917 48.8077 34.5831 48.8762 34.5831 48.9439C34.5823 49.3984 34.9569 49.7902 35.4453 49.7902H40.5547C41.0431 49.7902 41.4177 49.3975 41.4169 48.9439C41.4169 48.8771 41.4083 48.8085 41.391 48.7392L40.1705 43.9369C40.9423 43.3166 41.4453 42.3849 41.4453 41.328C41.4453 39.4587 39.9027 37.9431 38 37.9431Z" fill="url(#paint5_linear)"/>
<defs>
<linearGradient id="paint0_linear" x1="38" y1="13.4031" x2="38" y2="43.0207" gradientUnits="userSpaceOnUse">
<stop stop-color="#A4A4A4"/>
<stop offset="0.619" stop-color="#808080"/>
<stop offset="1" stop-color="#6F6F6F"/>
</linearGradient>
<linearGradient id="paint1_linear" x1="38.0181" y1="61.7059" x2="38.0181" y2="27.7395" gradientUnits="userSpaceOnUse">
<stop stop-color="#FF604C"/>
<stop offset="0.209" stop-color="#FD6164"/>
<stop offset="0.522" stop-color="#FB6281"/>
<stop offset="0.793" stop-color="#F96393"/>
<stop offset="0.989" stop-color="#F96399"/>
<stop offset="1" stop-color="#F96399"/>
</linearGradient>
<linearGradient id="paint2_linear" x1="50.0603" y1="50.6365" x2="50.0603" y2="27.7192" gradientUnits="userSpaceOnUse">
<stop stop-color="#FF5840"/>
<stop offset="0.007" stop-color="#FF5840"/>
<stop offset="0.989" stop-color="#FA528C"/>
<stop offset="1" stop-color="#FA528C"/>
</linearGradient>
<linearGradient id="paint3_linear" x1="24.2188" y1="53.7395" x2="24.2188" y2="41.0462" gradientUnits="userSpaceOnUse">
<stop stop-color="#FF705C"/>
<stop offset="0.124" stop-color="#FE7169"/>
<stop offset="0.483" stop-color="#FB7289"/>
<stop offset="0.784" stop-color="#FA739D"/>
<stop offset="0.989" stop-color="#F973A4"/>
<stop offset="1" stop-color="#F973A4"/>
</linearGradient>
<linearGradient id="paint4_linear" x1="28.5254" y1="46.7931" x2="28.5254" y2="32.8296" gradientUnits="userSpaceOnUse">
<stop stop-color="#FF705C"/>
<stop offset="0.172" stop-color="#FE7169"/>
<stop offset="1" stop-color="#F973A4"/>
</linearGradient>
<linearGradient id="paint5_linear" x1="37.985" y1="55.8304" x2="37.985" y2="42.5722" gradientUnits="userSpaceOnUse">
<stop stop-color="#9C9C9C"/>
<stop offset="0.102" stop-color="#959595"/>
<stop offset="0.686" stop-color="#727272"/>
<stop offset="1" stop-color="#656565"/>
</linearGradient>
</defs>
</svg>
