<svg width="11" height="11" viewBox="0 0 11 11" fill="none" xmlns="http://www.w3.org/2000/svg">
<path d="M5.4175 0C4.68531 0 4.30977 0.439415 4.16625 0.660413C3.16422 0.757583 2.42687 1.9692 2.42687 3.5566C2.42687 3.8954 2.42859 4.17315 2.43375 4.39587H4.02875C3.85602 3.64603 3.97375 2.87125 4.62 1.97436C4.84945 2.59006 6.09297 3.28831 6.81312 3.28831C6.81312 3.726 6.82172 4.1078 6.83375 4.39587H8.79312C8.64187 1.55558 7.4568 0 5.4175 0ZM4.62 3.62539C4.43781 3.62539 4.29 3.7733 4.29 3.9556C4.29 4.1379 4.43781 4.2858 4.62 4.2858C4.80219 4.2858 4.95 4.1379 4.95 3.9556C4.95 3.7733 4.80219 3.62539 4.62 3.62539ZM6.16 3.62539C5.97781 3.62539 5.83 3.7733 5.83 3.9556C5.83 4.1379 5.97781 4.2858 6.16 4.2858C6.34219 4.2858 6.49 4.1379 6.49 3.9556C6.49 3.7733 6.34219 3.62539 6.16 3.62539ZM0.88 4.83615C0.386719 4.83615 0 5.22311 0 5.7167V10.1194C0 10.613 0.386719 11 0.88 11H10.12C10.6133 11 11 10.613 11 10.1194V5.7167C11 5.22311 10.6133 4.83615 10.12 4.83615H0.88ZM1.32 5.93684H9.24C9.37234 5.93684 9.46 6.02455 9.46 6.15697V9.67917C9.46 9.8116 9.37234 9.89931 9.24 9.89931H1.32C1.18766 9.89931 1.1 9.8116 1.1 9.67917V6.15697C1.1 6.02455 1.18766 5.93684 1.32 5.93684ZM5.47937 6.37711C4.98867 6.37711 4.71625 6.65658 4.59937 6.82427C3.91187 6.918 3.41 7.75211 3.41 8.8399C3.41 9.2389 3.41773 9.51751 3.42375 9.67917H4.61312C4.4318 9.12023 4.39656 8.49765 4.95 7.78737C5.10383 8.20528 5.93742 8.66792 6.42125 8.66792C6.42125 9.03682 6.42555 9.41088 6.42812 9.67917H7.80312C7.76445 7.55003 6.94719 6.37711 5.47937 6.37711ZM10.12 7.58787C10.3022 7.58787 10.45 7.73577 10.45 7.91807C10.45 8.10038 10.3022 8.24828 10.12 8.24828C9.93781 8.24828 9.79 8.10038 9.79 7.91807C9.79 7.73577 9.93781 7.58787 10.12 7.58787ZM5.06 8.90869C4.93883 8.90869 4.84 9.00758 4.84 9.12883C4.84 9.25008 4.93883 9.34897 5.06 9.34897C5.18117 9.34897 5.28 9.25008 5.28 9.12883C5.28 9.00758 5.18117 8.90869 5.06 8.90869ZM5.94 8.90869C5.81883 8.90869 5.72 9.00758 5.72 9.12883C5.72 9.25008 5.81883 9.34897 5.94 9.34897C6.06117 9.34897 6.16 9.25008 6.16 9.12883C6.16 9.00758 6.06117 8.90869 5.94 8.90869Z" fill="white"/>
</svg>
