<svg width="16" height="19" viewBox="0 0 16 19" fill="none" xmlns="http://www.w3.org/2000/svg">
<path d="M6.40107 0C5.80653 0 5.22309 0.119748 4.8008 0.547419C4.37851 0.97509 4.24515 1.58238 4.24515 2.21248H1.42246C1.03073 2.21248 0.71123 2.54037 0.71123 2.94238H0V4.40216H15.6471V2.94238H14.9358C14.9358 2.54037 14.6163 2.21248 14.2246 2.21248H11.4019C11.4019 1.58238 11.2685 0.97509 10.8463 0.547419C10.424 0.119748 9.84053 0 9.24599 0H6.40107ZM6.40107 1.5054H9.24599C9.63494 1.5054 9.75719 1.59949 9.80164 1.64226C9.84609 1.68502 9.93499 1.80477 9.93499 2.21248H5.71207C5.71207 1.80477 5.80097 1.68502 5.84542 1.64226C5.88987 1.59949 6.01212 1.5054 6.40107 1.5054ZM1.42246 5.13205V16.8103C1.42246 18.0164 2.38095 19 3.55615 19H12.0909C13.2661 19 14.2246 18.0164 14.2246 16.8103V5.13205H1.42246ZM4.26738 7.32173H5.68984V16.0804H4.26738V7.32173ZM7.1123 7.32173H8.53476V16.0804H7.1123V7.32173ZM9.95722 7.32173H11.3797V16.0804H9.95722V7.32173Z" fill="white"/>
</svg>
