<svg xmlns="http://www.w3.org/2000/svg" overflow="visible" viewBox="0 0 127.3 57.7">
  <path fill="#FFEBB6" d="M13.4 57.5C6 58.7 0 53.6 0 46.2l9.1-1.4c0 2.3 1.9 4 4.2 3.6s4.2-2.6 4.2-4.9V16.9l9.1-1.4v26.6c.2 7.3-5.8 14.3-13.2 15.4z"/>
  <path fill="#FFEBB6" d="M57.2 50.7l9.6-1.5L53 11.5 43.4 13 30 54.9l9.6-1.5 1.8-5.6 12.4-6.2 3.4 9.1zm-15.8-2.9l12.4-6.2m-12.4 6.2l12.4-6.2m-9.2-3.7l3.7-11.4 2.9 7.8-6.6 3.6z"/>
  <path fill="#FFEBB6" d="M108.5 42.8l-9.2 1.4V21l-6 15.4-4.9.8-6-13.6v23.2l-9.2 1.4V8.4l13.6-2.1 4.1 12.4 4-13.7 13.6-2.1z"/>
  <path fill="#FFEBB6" d="M127.3 27.7l-9.1 1.4V1.4l9.1-1.4z"/>
  <path fill="#FFEBB6" d="M127.3 39.9l-9.1 1.5v-8.8l9.1-1.4z"/>
</svg>