<?xml version="1.0" standalone="no"?>
<!DOCTYPE svg PUBLIC "-//W3C//DTD SVG 20010904//EN"
 "http://www.w3.org/TR/2001/REC-SVG-20010904/DTD/svg10.dtd">
<svg version="1.0" xmlns="http://www.w3.org/2000/svg"
 width="500.000000pt" height="500.000000pt" viewBox="0 0 500.000000 500.000000"
 preserveAspectRatio="xMidYMid meet">
<metadata>
Created by potrace 1.11, written by Peter Selinger 2001-2013
</metadata>
<g transform="translate(0.000000,500.000000) scale(0.100000,-0.100000)"
fill="#000000" stroke="none">
<path d="M0 2500 l0 -2500 2500 0 2500 0 0 2500 0 2500 -2500 0 -2500 0 0
-2500z m3448 468 l-3 -1063 -28 -90 c-130 -419 -478 -742 -885 -824 -90 -18
-308 -14 -394 8 -291 75 -502 289 -578 585 -20 77 -28 226 -12 226 11 0 582
89 615 96 22 5 27 2 27 -13 0 -43 32 -121 65 -160 74 -86 207 -111 320 -59 78
35 156 113 191 189 l29 62 3 1006 2 1005 293 46 c160 25 307 46 325 47 l33 1
-3 -1062z"/>
</g>
</svg>
